<svg xmlns="http://www.w3.org/2000/svg" style="display:none">
  
  
  <defs>
    <symbol id="i-home" viewBox="0 0 24 24" fill="none" stroke="currentColor" stroke-width="1.8" stroke-linecap="round" stroke-linejoin="round"><path d="M3 12l9-8 9 8"></path><path d="M5 10v10h14V10"></path></symbol>
    <symbol id="i-users" viewBox="0 0 24 24" fill="none" stroke="currentColor" stroke-width="1.8" stroke-linecap="round" stroke-linejoin="round"><circle cx="9" cy="8" r="3.5"></circle><path d="M2.5 20c0-3.6 2.9-6.5 6.5-6.5s6.5 2.9 6.5 6.5"></path><circle cx="17" cy="7" r="2.5"></circle><path d="M15 14c3 0 5.5 2 5.5 5"></path></symbol>
    <symbol id="i-doc" viewBox="0 0 24 24" fill="none" stroke="currentColor" stroke-width="1.8" stroke-linecap="round" stroke-linejoin="round"><path d="M14 3H6a2 2 0 0 0-2 2v14a2 2 0 0 0 2 2h12a2 2 0 0 0 2-2V9z"></path><path d="M14 3v6h6"></path><path d="M8 13h8M8 17h6"></path></symbol>
    <symbol id="i-cog" viewBox="0 0 24 24" fill="none" stroke="currentColor" stroke-width="1.8" stroke-linecap="round" stroke-linejoin="round"><circle cx="12" cy="12" r="3"></circle><path d="M19.4 15a1.65 1.65 0 0 0 .33 1.82l.06.06a2 2 0 1 1-2.83 2.83l-.06-.06a1.65 1.65 0 0 0-1.82-.33 1.65 1.65 0 0 0-1 1.51V21a2 2 0 1 1-4 0v-.09A1.65 1.65 0 0 0 9 19.4a1.65 1.65 0 0 0-1.82.33l-.06.06a2 2 0 1 1-2.83-2.83l.06-.06a1.65 1.65 0 0 0 .33-1.82 1.65 1.65 0 0 0-1.51-1H3a2 2 0 1 1 0-4h.09A1.65 1.65 0 0 0 4.6 9a1.65 1.65 0 0 0-.33-1.82l-.06-.06a2 2 0 1 1 2.83-2.83l.06.06a1.65 1.65 0 0 0 1.82.33H9a1.65 1.65 0 0 0 1-1.51V3a2 2 0 1 1 4 0v.09a1.65 1.65 0 0 0 1 1.51 1.65 1.65 0 0 0 1.82-.33l.06-.06a2 2 0 1 1 2.83 2.83l-.06.06a1.65 1.65 0 0 0-.33 1.82V9a1.65 1.65 0 0 0 1.51 1H21a2 2 0 1 1 0 4h-.09a1.65 1.65 0 0 0-1.51 1z"></path></symbol>
    <symbol id="i-search" viewBox="0 0 24 24" fill="none" stroke="currentColor" stroke-width="1.8" stroke-linecap="round" stroke-linejoin="round"><circle cx="11" cy="11" r="7"></circle><path d="m20 20-3.5-3.5"></path></symbol>
    <symbol id="i-arrow-right" viewBox="0 0 24 24" fill="none" stroke="currentColor" stroke-width="1.8" stroke-linecap="round" stroke-linejoin="round"><path d="M5 12h14M13 5l7 7-7 7"></path></symbol>
    <symbol id="i-arrow-left" viewBox="0 0 24 24" fill="none" stroke="currentColor" stroke-width="1.8" stroke-linecap="round" stroke-linejoin="round"><path d="M19 12H5M11 5l-7 7 7 7"></path></symbol>
    <symbol id="i-download" viewBox="0 0 24 24" fill="none" stroke="currentColor" stroke-width="1.8" stroke-linecap="round" stroke-linejoin="round"><path d="M12 4v12M6 10l6 6 6-6M4 20h16"></path></symbol>
    <symbol id="i-wave" viewBox="0 0 24 24" fill="none" stroke="currentColor" stroke-width="1.8" stroke-linecap="round"><path d="M3 12h2M7 7v10M11 4v16M15 8v8M19 11v2M21 12h0"></path></symbol>
    <symbol id="i-sparkle" viewBox="0 0 24 24" fill="none" stroke="currentColor" stroke-width="1.8" stroke-linecap="round" stroke-linejoin="round"><path d="M12 3l1.8 5.2L19 10l-5.2 1.8L12 17l-1.8-5.2L5 10l5.2-1.8z"></path><path d="M19 17l.6 1.7L21.3 19l-1.7.6L19 21l-.6-1.4L17 19l1.4-.3z"></path></symbol>
    <symbol id="i-check" viewBox="0 0 24 24" fill="none" stroke="currentColor" stroke-width="2.2" stroke-linecap="round" stroke-linejoin="round"><path d="M5 13l4 4L19 7"></path></symbol>
    <symbol id="i-play" viewBox="0 0 24 24" fill="currentColor"><path d="M8 5.5v13l11-6.5z"></path></symbol>
    <symbol id="i-heart" viewBox="0 0 24 24" fill="none" stroke="currentColor" stroke-width="1.8" stroke-linecap="round" stroke-linejoin="round"><path d="M20.84 4.6a5.5 5.5 0 0 0-7.78 0L12 5.67l-1.06-1.07a5.5 5.5 0 1 0-7.78 7.78L12 21.23l8.84-8.85a5.5 5.5 0 0 0 0-7.78z"></path></symbol>
    <symbol id="i-clock" viewBox="0 0 24 24" fill="none" stroke="currentColor" stroke-width="1.8" stroke-linecap="round" stroke-linejoin="round"><circle cx="12" cy="12" r="8"></circle><path d="M12 7v5l3 2"></path></symbol>
    <symbol id="i-comment" viewBox="0 0 24 24" fill="none" stroke="currentColor" stroke-width="1.8" stroke-linecap="round" stroke-linejoin="round"><path d="M5 6.5h14a2 2 0 0 1 2 2v7a2 2 0 0 1-2 2H10l-5 3v-3H5a2 2 0 0 1-2-2v-7a2 2 0 0 1 2-2z"></path></symbol>
    <symbol id="i-bookmark" viewBox="0 0 24 24" fill="none" stroke="currentColor" stroke-width="1.8" stroke-linecap="round" stroke-linejoin="round"><path d="M7 4.5h10a1.5 1.5 0 0 1 1.5 1.5v13L12 15l-6.5 4V6A1.5 1.5 0 0 1 7 4.5z"></path></symbol>
    <symbol id="i-user" viewBox="0 0 24 24" fill="none" stroke="currentColor" stroke-width="1.8" stroke-linecap="round" stroke-linejoin="round"><circle cx="12" cy="8" r="3.5"></circle><path d="M5 19c0-3.9 3.1-6.5 7-6.5s7 2.6 7 6.5"></path></symbol>
    <symbol id="i-swap" viewBox="0 0 24 24" fill="none" stroke="currentColor" stroke-width="1.8" stroke-linecap="round" stroke-linejoin="round"><path d="M7 4v16M3 8l4-4 4 4M17 20V4M21 16l-4 4-4-4"></path></symbol>
    <symbol id="i-refresh" viewBox="0 0 24 24" fill="none" stroke="currentColor" stroke-width="1.8" stroke-linecap="round" stroke-linejoin="round"><path d="M3 12a9 9 0 0 1 15-6.7L21 8"></path><path d="M21 3v5h-5"></path><path d="M21 12a9 9 0 0 1-15 6.7L3 16"></path><path d="M3 21v-5h5"></path></symbol>
    <symbol id="i-tag" viewBox="0 0 24 24" fill="none" stroke="currentColor" stroke-width="1.8" stroke-linecap="round" stroke-linejoin="round"><path d="M20.5 12.5 12 21l-8.5-8.5V4H12z"></path><circle cx="8" cy="8" r="1.3" fill="currentColor"></circle></symbol>
    <symbol id="i-external" viewBox="0 0 24 24" fill="none" stroke="currentColor" stroke-width="1.8" stroke-linecap="round" stroke-linejoin="round"><path d="M14 4h6v6"></path><path d="M10 14 20 4"></path><path d="M18 13v6a1 1 0 0 1-1 1H5a1 1 0 0 1-1-1V7a1 1 0 0 1 1-1h6"></path></symbol>
    <symbol id="i-chevron" viewBox="0 0 24 24" fill="none" stroke="currentColor" stroke-width="1.8" stroke-linecap="round" stroke-linejoin="round"><path d="M9 6l6 6-6 6"></path></symbol>
    <symbol id="i-mic" viewBox="0 0 24 24" fill="none" stroke="currentColor" stroke-width="1.8" stroke-linecap="round" stroke-linejoin="round"><path d="M12 15a3.5 3.5 0 0 0 3.5-3.5v-4a3.5 3.5 0 1 0-7 0v4A3.5 3.5 0 0 0 12 15z"></path><path d="M6.5 11.5a5.5 5.5 0 0 0 11 0"></path><path d="M12 17v3"></path><path d="M9 20h6"></path></symbol>
    <symbol id="i-zap" viewBox="0 0 24 24" fill="none" stroke="currentColor" stroke-width="1.8" stroke-linecap="round" stroke-linejoin="round"><path d="M13 2 5 13h5l-1 9 8-11h-5z"></path></symbol>
    <symbol id="i-save" viewBox="0 0 24 24" fill="none" stroke="currentColor" stroke-width="1.8" stroke-linecap="round" stroke-linejoin="round"><path d="M5 4.5h11l3.5 3.5V19a1.5 1.5 0 0 1-1.5 1.5h-13A1.5 1.5 0 0 1 3.5 19V6A1.5 1.5 0 0 1 5 4.5z"></path><path d="M8 4.5v5h8v-4"></path><path d="M8 19v-5h8v5"></path></symbol>
  </defs>
</svg>
